<?xml version="1.0" encoding="UTF-8"?>
<svg version="1.1" viewBox="0 0 172 172" xmlns="http://www.w3.org/2000/svg" width="100%" height="100%">
<g transform="translate(-25.8 -25.8) scale(1.3)">
<g font-family="none" font-size="none" font-weight="none" stroke-dasharray="" stroke-miterlimit="10" text-anchor="none" style="mix-blend-mode:normal">
<path d="m0 172v-172h172v172z" fill="none"/>
<g>
<path fill="#ff1493" d="m86 22.36c-25.607 0-46.44 20.833-46.44 46.44 0 23.088 16.899 42.565 39.56 45.923v10.837h-13.76c-0.95116 0-1.72 0.76884-1.72 1.72v10.32c0 0.95116 0.76884 1.72 1.72 1.72h13.76v12.04c0 0.95116 0.76884 1.72 1.72 1.72h10.32c0.95116 0 1.72-0.76884 1.72-1.72v-12.04h13.76c0.95116 0 1.72-0.76884 1.72-1.72v-10.32c0-0.95116-0.76884-1.72-1.72-1.72h-13.76v-10.837c22.661-3.3574 39.56-22.835 39.56-45.923 0-25.607-20.833-46.44-46.44-46.44zm0 3.44c23.71 0 43 19.29 43 43 0 21.853-16.351 40.212-38.035 42.704-0.8686 0.09804-1.5252 0.83616-1.5252 1.7099v14.066c0 0.95116 0.76884 1.72 1.72 1.72h13.76v6.88h-13.76c-0.95116 0-1.72 0.76884-1.72 1.72v12.04h-6.88v-12.04c0-0.95116-0.76884-1.72-1.72-1.72h-13.76v-6.88h13.76c0.95116 0 1.72-0.76884 1.72-1.72v-14.066c0-0.87376-0.65656-1.6102-1.5252-1.7099-21.684-2.4923-38.035-20.852-38.035-42.704 0-23.71 19.29-43 43-43zm0 5.16c-20.865 0-37.84 16.975-37.84 37.84s16.975 37.84 37.84 37.84 37.84-16.975 37.84-37.84c0-7.9447-2.4334-15.547-7.0412-21.987-0.27864-0.38872-0.81746-0.47512-1.1993-0.1982-0.38528 0.2752-0.47512 0.8123-0.1982 1.1993 4.3946 6.1456 6.7188 13.403 6.7188 20.986 0 19.916-16.204 36.12-36.12 36.12s-36.12-16.204-36.12-36.12 16.204-36.12 36.12-36.12c4.9605 0 9.7674 0.98569 14.281 2.9327 0.43172 0.18748 0.94299-0.015 1.1288-0.45016 0.18748-0.43688-0.01499-0.94127-0.45015-1.1288-4.7317-2.0382-9.7632-3.0738-14.959-3.0738zm18.154 4.7098c-0.3329-0.03709-0.67112 0.12118-0.84656 0.43336-0.2322 0.41624-0.08194 0.94022 0.33258 1.1724 0.56932 0.3182 1.1276 0.65193 1.6763 1.0011 0.14276 0.09116 0.30535 0.13102 0.46359 0.13102 0.2838 0 0.56222-0.13841 0.72562-0.39641 0.25628-0.40076 0.13365-0.93466-0.26539-1.1892-0.5762-0.36636-1.1635-0.71444-1.7603-1.0481-0.10363-0.05762-0.21489-0.09178-0.32586-0.10414zm4.9786 3.4938c-0.21887 0.02322-0.43067 0.13002-0.58117 0.31578-0.29756 0.3698-0.23878 0.9101 0.13102 1.2094 1.173 0.946 2.305 1.9815 3.3594 3.0806 0.16684 0.17372 0.3928 0.26539 0.61812 0.26539 0.215 0 0.43113-0.07855 0.59797-0.23851 0.344-0.32852 0.35204-0.87382 0.02352-1.2161-1.106-1.149-2.2891-2.2359-3.5206-3.2284-0.18318-0.14792-0.40933-0.21135-0.6282-0.18812z"/>
</g>
</g>
</g>
</svg>
